<?xml version="1.0" standalone="no"?>
<!DOCTYPE svg PUBLIC "-//W3C//DTD SVG 20010904//EN"
 "http://www.w3.org/TR/2001/REC-SVG-20010904/DTD/svg10.dtd">
<svg version="1.0" xmlns="http://www.w3.org/2000/svg"
 width="2137.000000pt" height="2138.000000pt" viewBox="0 0 2137.000000 2138.000000"
 preserveAspectRatio="xMidYMid meet">
<metadata>
Created by potrace 1.16, written by Peter Selinger 2001-2019
</metadata>
<g transform="translate(0.000000,2138.000000) scale(0.100000,-0.100000)"
fill="#000000" stroke="none">
<path d="M20150 21346 c-36 -8 -106 -29 -155 -48 -66 -25 -2630 -1499 -9775
-5622 -5327 -3073 -9716 -5609 -9755 -5634 -197 -132 -343 -330 -411 -558 -36
-120 -45 -347 -19 -475 59 -294 240 -544 495 -683 36 -19 1068 -456 2295 -971
2002 -840 2232 -935 2251 -923 12 7 2711 2385 5999 5283 3440 3033 5997 5280
6023 5294 191 99 418 -129 319 -320 -12 -24 -2283 -2798 -5045 -6163 l-5022
-6120 2 -1775 3 -1776 23 -85 c13 -47 48 -134 77 -195 100 -206 243 -349 450
-450 172 -85 244 -100 460 -99 167 0 186 2 270 28 168 51 330 149 436 264 25
26 642 775 1373 1664 l1328 1618 31 -14 c748 -316 5173 -2167 5222 -2184 208
-73 462 -69 676 12 288 108 523 357 609 646 11 36 699 4144 1530 9130 l1512
9065 -5 150 c-4 114 -10 168 -26 224 -84 286 -280 513 -555 642 -136 64 -217
81 -396 85 -104 2 -176 -1 -220 -10z"/>
</g>
</svg>
